<svg id="Capa_1" enable-background="new 0 0 512.083 512.083" height="512" viewBox="0 0 512.083 512.083" width="512" xmlns="http://www.w3.org/2000/svg"><path d="m408.243 344.555-31.833 31.833-31.806 31.805 103.846 103.846 31.816-31.817 31.817-31.816z" fill="#5b5555"/><path d="m408.243 344.555-31.833 31.833 103.856 103.834 31.817-31.816z" fill="#463f3f"/><path d="m352.375 288.684-31.829 31.851-31.789 31.811 55.847 55.847 31.806-31.805 31.833-31.833z" fill="#ffe274"/><path d="m352.375 288.684-31.829 31.851 55.864 55.853 31.833-31.833z" fill="#ffb62a"/><path d="m332.827 57.231c-76.273-76.273-199.413-76.227-275.64 0-76.273 76.273-76.227 199.413 0 275.64 76.273 76.273 199.413 76.227 275.64 0 .009-.009.018-.02.027-.029 76.246-76.278 76.191-199.393-.027-275.611z" fill="#766e6e"/><path d="m332.827 57.231c-76.273-76.273-199.413-76.227-275.64 0l275.667 275.61c76.246-76.277 76.191-199.392-.027-275.61z" fill="#5b5555"/><path d="m311.625 78.433c-64.497-64.497-168.693-64.539-233.234-.002l-.002.002c-64.497 64.497-64.537 168.699 0 233.236 64.497 64.497 168.699 64.537 233.236 0 .009-.009.015-.02.024-.029 64.47-64.499 64.504-168.679-.024-233.207z" fill="#76e2f8"/><path d="m311.625 78.433c-64.497-64.497-168.693-64.539-233.234-.002l233.258 233.209c64.47-64.499 64.504-168.679-.024-233.207z" fill="#4bb9ec"/><path d="m240.007 90.051-30 30h-30l-30-30h-59.993-.007v210h210v-.051-209.949z" fill="#ffe274"/><path d="m240.007 90.051-30 30h-30l-30-30h-59.993l209.993 209.949v-209.949z" fill="#ffb62a"/><path d="m150.007 90.051v59.982 30.018h30.026 59.974v-90z" fill="#f2ede5"/><path d="m240.007 90.051h-90v59.982l30.026 30.018h59.974z" fill="#e1d3ce"/><path d="m418.85 312.737-53.048 53.047-53.021 53.022 21.21 21.211 53.026-53.026 53.044-53.043z" fill="#766e6e"/><path d="m365.424 334.866h75.018v29.997h-75.018z" fill="#5b5555" transform="matrix(.707 -.707 .707 .707 -129.376 387.389)"/></svg>